<svg width="235" height="49" viewBox="0 0 235 49" fill="none" xmlns="http://www.w3.org/2000/svg">
<g filter="url(#filter0_b_392_4455)">
<rect width="190.555" height="27.2222" transform="translate(43.5547 10.8887)" fill="#EDECEA"/>
<path d="M63.7566 19.2865C63.5574 19.2865 63.4293 19.3724 63.3581 19.5729L60.5399 27.293H60.483L57.7076 19.5729C57.6364 19.3724 57.5083 19.2865 57.309 19.2865H56.3127C56.0565 19.2865 55.9426 19.444 56.028 19.7018L59.4582 29.4844C59.5294 29.6849 59.6575 29.7708 59.8568 29.7708H61.2089C61.4082 29.7708 61.5363 29.6849 61.6074 29.4844L65.0519 19.7018C65.1373 19.444 65.0234 19.2865 64.7672 19.2865H63.7566Z" fill="black"/>
<path d="M69.6325 21.8359C67.3837 21.8359 65.8749 23.5404 65.8749 25.9753C65.8749 28.4102 67.3979 30 69.5044 30C70.9135 30 72.0948 29.2695 72.6926 27.9089C72.7923 27.6654 72.6784 27.4935 72.408 27.4935H71.5397C71.3405 27.4935 71.2124 27.5651 71.1127 27.737C70.7427 28.2956 70.3015 28.5104 69.6467 28.5104C68.5081 28.5104 67.6114 27.8659 67.5402 26.3047H72.593C72.8207 26.3047 72.9488 26.1901 72.9631 25.9609C73.0627 23.6693 71.9525 21.8359 69.6325 21.8359ZM69.4902 23.3255C70.643 23.3255 71.2408 24.1133 71.2551 24.987H67.6256C67.8249 24.1419 68.3088 23.3255 69.4902 23.3255Z" fill="black"/>
<path d="M78.4032 22.4375C78.4032 22.2083 78.2751 22.0794 78.0474 22.0794H76.8803L76.8661 19.5156C76.8661 19.2865 76.738 19.1576 76.5102 19.1576H75.5851C75.3573 19.1576 75.2292 19.2865 75.2292 19.5156L75.215 22.0794H74.2472C74.0194 22.0794 73.8913 22.2083 73.8913 22.4375V23.125C73.8913 23.3542 74.0194 23.4831 74.2472 23.4831H75.2008L75.1723 29.4128C75.1723 29.6419 75.3004 29.7708 75.5281 29.7708H76.5672C76.7949 29.7708 76.923 29.6419 76.923 29.4128L76.8945 23.4831H78.0474C78.2751 23.4831 78.4032 23.3542 78.4032 23.125V22.4375Z" fill="black"/>
<path d="M83.6295 22.4375C83.6295 22.2083 83.5014 22.0794 83.2736 22.0794H82.1065L82.0923 19.5156C82.0923 19.2865 81.9642 19.1576 81.7365 19.1576H80.8113C80.5836 19.1576 80.4555 19.2865 80.4555 19.5156L80.4412 22.0794H79.4734C79.2457 22.0794 79.1176 22.2083 79.1176 22.4375V23.125C79.1176 23.3542 79.2457 23.4831 79.4734 23.4831H80.427L80.3985 29.4128C80.3985 29.6419 80.5266 29.7708 80.7544 29.7708H81.7934C82.0211 29.7708 82.1492 29.6419 82.1492 29.4128L82.1208 23.4831H83.2736C83.5014 23.4831 83.6295 23.3542 83.6295 23.125V22.4375Z" fill="black"/>
<path d="M88.2579 21.8359C86.0091 21.8359 84.5004 23.5404 84.5004 25.9753C84.5004 28.4102 86.0233 30 88.1298 30C89.5389 30 90.7203 29.2695 91.3181 27.9089C91.4177 27.6654 91.3038 27.4935 91.0334 27.4935H90.1652C89.9659 27.4935 89.8378 27.5651 89.7382 27.737C89.3681 28.2956 88.9269 28.5104 88.2722 28.5104C87.1335 28.5104 86.2368 27.8659 86.1656 26.3047H91.2184C91.4462 26.3047 91.5742 26.1901 91.5885 25.9609C91.6881 23.6693 90.5779 21.8359 88.2579 21.8359ZM88.1156 23.3255C89.2685 23.3255 89.8663 24.1133 89.8805 24.987H86.251C86.4503 24.1419 86.9342 23.3255 88.1156 23.3255Z" fill="black"/>
<path d="M99.8753 19.3581C99.8753 19.1289 99.7472 19 99.5195 19H98.5943C98.3666 19 98.2385 19.1289 98.2385 19.3581L98.2243 22.5807H98.1531C97.6834 22.0508 97.0714 21.8503 96.3028 21.8503C94.1393 21.8503 92.6733 23.526 92.6733 26.0182C92.6733 28.3242 93.9543 30 95.8046 30C96.7155 30 97.5838 29.6133 98.0677 28.7539H98.1673V29.4128C98.1673 29.6419 98.2954 29.7708 98.5231 29.7708H99.5764C99.8041 29.7708 99.9322 29.6419 99.9322 29.4128L99.8753 19.3581ZM96.2601 23.3255C97.4272 23.3255 98.2527 24.1562 98.3096 25.7318V25.8034C98.2954 27.5078 97.4557 28.4961 96.2743 28.4961C95.1499 28.4961 94.3386 27.5938 94.3386 25.875C94.3386 24.2852 95.0076 23.3255 96.2601 23.3255Z" fill="black"/>
<path d="M108.564 19.0573C106.472 19.0573 104.736 20.2031 104.793 22.0938C104.864 23.5977 106.017 24.4284 108.009 25.0872L108.522 25.2734C110.329 25.875 110.955 26.4622 110.955 27.2357C110.955 28.0378 110.272 28.4674 108.877 28.4674C107.411 28.4674 106.586 27.8945 106.13 27.0352C106.031 26.8633 105.917 26.7773 105.703 26.7773H104.736C104.494 26.7773 104.351 26.9206 104.422 27.1641C104.793 28.4818 106.116 30 108.792 30C111.126 30 112.692 28.9258 112.692 27.0065C112.692 25.6172 111.852 24.457 109.39 23.6979L108.934 23.5547C107.141 23.0104 106.529 22.5951 106.529 21.8359C106.529 21.1198 107.113 20.5755 108.422 20.5755C109.518 20.5755 110.301 21.0482 110.785 21.793C110.899 21.9648 111.012 22.0365 111.212 22.0365H112.123C112.379 22.0365 112.507 21.8789 112.421 21.6354C111.881 20.1602 110.557 19.0573 108.564 19.0573Z" fill="black"/>
<path d="M117.628 21.8359C115.379 21.8359 113.87 23.5404 113.87 25.9753C113.87 28.4102 115.393 30 117.5 30C118.909 30 120.09 29.2695 120.688 27.9089C120.787 27.6654 120.674 27.4935 120.403 27.4935H119.535C119.336 27.4935 119.208 27.5651 119.108 27.737C118.738 28.2956 118.297 28.5104 117.642 28.5104C116.503 28.5104 115.607 27.8659 115.535 26.3047H120.588C120.816 26.3047 120.944 26.1901 120.958 25.9609C121.058 23.6693 119.948 21.8359 117.628 21.8359ZM117.485 23.3255C118.638 23.3255 119.236 24.1133 119.25 24.987H115.621C115.82 24.1419 116.304 23.3255 117.485 23.3255Z" fill="black"/>
<path d="M126.64 22.2227C126.64 21.9792 126.512 21.8503 126.27 21.8789C125.502 21.9792 124.79 22.4232 124.292 23.0964H124.178L124.164 22.4375C124.164 22.2083 124.036 22.0794 123.808 22.0794H122.883C122.655 22.0794 122.527 22.2083 122.527 22.4375L122.47 29.4128C122.47 29.6419 122.598 29.7708 122.826 29.7708H123.865C124.093 29.7708 124.221 29.6419 124.221 29.4128L124.192 26.0612C124.107 24.1276 125.018 23.7122 126.285 23.6549C126.512 23.6406 126.64 23.5117 126.64 23.2826V22.2227Z" fill="black"/>
<path d="M134.38 22.4805C134.451 22.237 134.338 22.0794 134.081 22.0794H133.199C132.985 22.0794 132.857 22.1797 132.786 22.3659L130.964 27.9518H130.794L128.957 22.3659C128.886 22.1797 128.758 22.0794 128.545 22.0794H127.662C127.406 22.0794 127.292 22.237 127.363 22.4805L129.683 29.4844C129.754 29.6706 129.883 29.7708 130.096 29.7708H131.647C131.861 29.7708 131.989 29.6706 132.06 29.4844L134.38 22.4805Z" fill="black"/>
<path d="M137.595 19.3581C137.595 19.1289 137.466 19 137.239 19H136.314C136.086 19 135.958 19.1289 135.958 19.3581V20.2891C135.958 20.5182 136.086 20.6471 136.314 20.6471H137.239C137.466 20.6471 137.595 20.5182 137.595 20.2891V19.3581ZM137.58 22.4375C137.58 22.2083 137.452 22.0794 137.224 22.0794H136.299C136.072 22.0794 135.943 22.2083 135.943 22.4375L135.887 29.4128C135.887 29.6419 136.015 29.7708 136.242 29.7708H137.281C137.509 29.7708 137.637 29.6419 137.637 29.4128L137.58 22.4375Z" fill="black"/>
<path d="M142.893 21.8359C140.773 21.8359 139.292 23.4258 139.292 26.0182C139.292 28.4245 140.673 30 142.837 30C144.573 30 145.655 28.9115 146.067 27.8372C146.167 27.5938 146.025 27.4362 145.769 27.4362H144.886C144.687 27.4362 144.573 27.5221 144.473 27.694C144.203 28.1667 143.804 28.4961 142.993 28.4961C141.755 28.4961 140.958 27.8372 140.958 25.9753C140.958 23.9987 141.755 23.3255 142.908 23.3255C143.705 23.3255 144.174 23.6549 144.53 24.2708C144.63 24.4427 144.744 24.5286 144.943 24.5286H145.826C146.082 24.5286 146.21 24.3854 146.153 24.1419C145.826 22.9674 144.658 21.8359 142.893 21.8359Z" fill="black"/>
<path d="M150.792 21.8359C148.543 21.8359 147.035 23.5404 147.035 25.9753C147.035 28.4102 148.557 30 150.664 30C152.073 30 153.254 29.2695 153.852 27.9089C153.952 27.6654 153.838 27.4935 153.568 27.4935H152.699C152.5 27.4935 152.372 27.5651 152.272 27.737C151.902 28.2956 151.461 28.5104 150.806 28.5104C149.668 28.5104 148.771 27.8659 148.7 26.3047H153.753C153.98 26.3047 154.108 26.1901 154.123 25.9609C154.222 23.6693 153.112 21.8359 150.792 21.8359ZM150.65 23.3255C151.803 23.3255 152.4 24.1133 152.415 24.987H148.785C148.984 24.1419 149.468 23.3255 150.65 23.3255Z" fill="black"/>
<path d="M158.812 19.2865C158.585 19.2865 158.456 19.4154 158.456 19.6445L158.385 29.4128C158.385 29.6419 158.513 29.7708 158.741 29.7708H159.837C160.065 29.7708 160.193 29.6419 160.193 29.4128L160.179 26.0039H162.869C165.046 26.0039 166.527 24.5 166.527 22.5521C166.527 20.6185 165.046 19.2865 162.869 19.2865H158.812ZM160.164 24.5143L160.15 20.776H162.741C163.979 20.776 164.847 21.5208 164.847 22.724C164.847 23.8411 164.121 24.5143 162.741 24.5143H160.164Z" fill="black"/>
<path d="M172.287 22.2227C172.287 21.9792 172.159 21.8503 171.917 21.8789C171.148 21.9792 170.436 22.4232 169.938 23.0964H169.824L169.81 22.4375C169.81 22.2083 169.682 22.0794 169.454 22.0794H168.529C168.301 22.0794 168.173 22.2083 168.173 22.4375L168.116 29.4128C168.116 29.6419 168.244 29.7708 168.472 29.7708H169.511C169.739 29.7708 169.867 29.6419 169.867 29.4128L169.839 26.0612C169.753 24.1276 170.664 23.7122 171.931 23.6549C172.159 23.6406 172.287 23.5117 172.287 23.2826V22.2227Z" fill="black"/>
<path d="M176.938 21.8503C174.774 21.8503 173.152 23.5404 173.152 25.9609C173.152 28.3242 174.717 30 176.81 30C178.959 30 180.596 28.2383 180.596 25.832C180.596 23.4544 179.03 21.8503 176.938 21.8503ZM176.753 23.3255C177.963 23.3255 178.916 24.3424 178.916 26.0182C178.916 27.5365 178.105 28.4961 176.981 28.4961C175.785 28.4961 174.817 27.4505 174.817 25.8034C174.817 24.2565 175.628 23.3255 176.753 23.3255Z" fill="black"/>
<path d="M188.547 22.4805C188.618 22.237 188.504 22.0794 188.248 22.0794H187.366C187.152 22.0794 187.024 22.1797 186.953 22.3659L185.131 27.9518H184.96L183.124 22.3659C183.053 22.1797 182.925 22.0794 182.711 22.0794H181.829C181.573 22.0794 181.459 22.237 181.53 22.4805L183.85 29.4844C183.921 29.6706 184.049 29.7708 184.263 29.7708H185.814C186.028 29.7708 186.156 29.6706 186.227 29.4844L188.547 22.4805Z" fill="black"/>
<path d="M191.761 19.3581C191.761 19.1289 191.633 19 191.405 19H190.48C190.252 19 190.124 19.1289 190.124 19.3581V20.2891C190.124 20.5182 190.252 20.6471 190.48 20.6471H191.405C191.633 20.6471 191.761 20.5182 191.761 20.2891V19.3581ZM191.747 22.4375C191.747 22.2083 191.619 22.0794 191.391 22.0794H190.466C190.238 22.0794 190.11 22.2083 190.11 22.4375L190.053 29.4128C190.053 29.6419 190.181 29.7708 190.409 29.7708H191.448C191.676 29.7708 191.804 29.6419 191.804 29.4128L191.747 22.4375Z" fill="black"/>
<path d="M200.661 19.3581C200.661 19.1289 200.533 19 200.305 19H199.38C199.152 19 199.024 19.1289 199.024 19.3581L199.01 22.5807H198.939C198.469 22.0508 197.857 21.8503 197.089 21.8503C194.925 21.8503 193.459 23.526 193.459 26.0182C193.459 28.3242 194.74 30 196.59 30C197.501 30 198.37 29.6133 198.853 28.7539H198.953V29.4128C198.953 29.6419 199.081 29.7708 199.309 29.7708H200.362C200.59 29.7708 200.718 29.6419 200.718 29.4128L200.661 19.3581ZM197.046 23.3255C198.213 23.3255 199.039 24.1562 199.095 25.7318V25.8034C199.081 27.5078 198.241 28.4961 197.06 28.4961C195.936 28.4961 195.124 27.5938 195.124 25.875C195.124 24.2852 195.793 23.3255 197.046 23.3255Z" fill="black"/>
<path d="M205.987 21.8359C203.738 21.8359 202.23 23.5404 202.23 25.9753C202.23 28.4102 203.753 30 205.859 30C207.268 30 208.45 29.2695 209.047 27.9089C209.147 27.6654 209.033 27.4935 208.763 27.4935H207.895C207.695 27.4935 207.567 27.5651 207.468 27.737C207.097 28.2956 206.656 28.5104 206.002 28.5104C204.863 28.5104 203.966 27.8659 203.895 26.3047H208.948C209.176 26.3047 209.304 26.1901 209.318 25.9609C209.417 23.6693 208.307 21.8359 205.987 21.8359ZM205.845 23.3255C206.998 23.3255 207.596 24.1133 207.61 24.987H203.98C204.18 24.1419 204.664 23.3255 205.845 23.3255Z" fill="black"/>
<path d="M215 22.2227C215 21.9792 214.872 21.8503 214.63 21.8789C213.861 21.9792 213.15 22.4232 212.652 23.0964H212.538L212.523 22.4375C212.523 22.2083 212.395 22.0794 212.168 22.0794H211.242C211.015 22.0794 210.887 22.2083 210.887 22.4375L210.83 29.4128C210.83 29.6419 210.958 29.7708 211.186 29.7708H212.225C212.452 29.7708 212.58 29.6419 212.58 29.4128L212.552 26.0612C212.467 24.1276 213.377 23.7122 214.644 23.6549C214.872 23.6406 215 23.5117 215 23.2826V22.2227Z" fill="black"/>
</g>
<path fill-rule="evenodd" clip-rule="evenodd" d="M24.4906 0L20.3089 2.4566C20.1954 2.52184 20.0637 2.54818 19.9338 2.53161L15.1144 1.85652L12.2078 5.73823C12.1248 5.85016 12.0055 5.92972 11.8702 5.96326L7.1822 7.16341L5.96326 11.8703C5.92971 12.0055 5.85015 12.1249 5.73823 12.2078L1.85652 15.1144L2.5316 19.9338C2.54817 20.0636 2.52183 20.1954 2.45659 20.3088L0 24.4906L2.45659 28.6724C2.52599 28.7912 2.55247 28.9302 2.5316 29.0662L1.85652 33.8855L5.73823 36.7922C5.85015 36.8751 5.92971 36.9945 5.96326 37.1297L7.1822 41.8178L11.8702 43.0367C12.0055 43.0702 12.1248 43.1498 12.2078 43.2617L15.1144 47.1435L19.9338 46.4684C20.0637 46.4519 20.1954 46.4782 20.3089 46.5434L24.4906 49L28.6912 46.5434C28.8046 46.4782 28.9364 46.4519 29.0662 46.4684L33.8856 47.1435L36.7922 43.2617C36.8752 43.1498 36.9945 43.0702 37.1297 43.0367L41.8178 41.8178L43.0368 37.1297C43.0703 36.9945 43.1499 36.8751 43.2618 36.7922L47.1435 33.8855L46.4684 29.0662C46.4476 28.9302 46.474 28.7912 46.5434 28.6724L49 24.4906L46.5434 20.3088C46.4782 20.1954 46.4519 20.0636 46.4684 19.9338L47.1435 15.1144L43.2618 12.2078C43.1499 12.1248 43.0703 12.0055 43.0368 11.8703L41.8178 7.16341L37.1297 5.96326C36.9945 5.92971 36.8752 5.85015 36.7922 5.73823L33.8856 1.85649L29.0662 2.53157C28.9364 2.54814 28.8046 2.5218 28.6912 2.45656L24.4906 0ZM24.5844 5.71952C24.6218 5.716 24.6595 5.716 24.6969 5.71952C24.8017 5.71788 24.9052 5.74374 24.9969 5.79453L28.0161 7.57597L31.4853 7.0884C31.5923 7.07473 31.701 7.09015 31.8 7.13305C31.899 7.17596 31.9846 7.24477 32.0478 7.33222L34.1669 10.1263L37.5611 11.0077C37.6649 11.0345 37.7597 11.0886 37.8356 11.1644C37.9114 11.2403 37.9656 11.3351 37.9923 11.439L38.8737 14.8332L41.6678 16.9522C41.7553 17.0154 41.8241 17.1009 41.867 17.1999C41.9099 17.2989 41.9253 17.4077 41.9116 17.5147L41.424 20.9839L43.2055 24.003C43.2617 24.0964 43.2914 24.2034 43.2914 24.3124C43.2914 24.4215 43.2617 24.5285 43.2055 24.6219L41.424 27.641L41.9116 31.1289C41.9253 31.236 41.9099 31.3447 41.867 31.4437C41.8241 31.5427 41.7553 31.6283 41.6678 31.6915L38.8737 33.7918L37.9923 37.2047C37.9656 37.3086 37.9114 37.4034 37.8356 37.4792C37.7597 37.5551 37.6649 37.6092 37.5611 37.636L34.1669 38.4987L32.0478 41.3114C31.9824 41.3955 31.8959 41.4606 31.797 41.5001C31.6982 41.5397 31.5906 41.5522 31.4853 41.5365L28.0161 41.049L24.9782 42.8305C24.887 42.8831 24.7835 42.9108 24.6781 42.9108C24.5728 42.9108 24.4693 42.8831 24.3781 42.8305L21.359 41.049L17.871 41.5365C17.7657 41.5522 17.6581 41.5397 17.5593 41.5001C17.4604 41.4606 17.3739 41.3955 17.3085 41.3114L15.2082 38.4987L11.814 37.636C11.7101 37.6092 11.6153 37.5551 11.5395 37.4792C11.4636 37.4034 11.4095 37.3086 11.3827 37.2047L10.4826 33.7918L7.68848 31.6915C7.60444 31.6261 7.5393 31.5396 7.49976 31.4407C7.46021 31.3418 7.44768 31.2342 7.46345 31.1289L7.95101 27.641L6.16951 24.6219C6.11329 24.5285 6.08359 24.4215 6.08359 24.3124C6.08359 24.2034 6.11329 24.0964 6.16951 24.003L7.95101 20.9839L7.46345 17.5147C7.44768 17.4094 7.46021 17.3018 7.49976 17.2029C7.5393 17.1041 7.60444 17.0175 7.68848 16.9522L10.4826 14.8332L11.3827 11.439C11.4095 11.3351 11.4636 11.2403 11.5395 11.1644C11.6153 11.0886 11.7101 11.0345 11.814 11.0077L15.2082 10.1263L17.3085 7.33222C17.3717 7.24477 17.4573 7.17596 17.5563 7.13305C17.6553 7.09015 17.764 7.07473 17.871 7.0884L21.359 7.57597L24.3781 5.79453C24.4417 5.75705 24.5116 5.73162 24.5844 5.71952Z" fill="#A38B68"/>
<g filter="url(#filter1_b_392_4455)">
<path fill-rule="evenodd" clip-rule="evenodd" d="M24.5829 5.71944C24.6203 5.71592 24.6579 5.71592 24.6953 5.71944C24.8002 5.7178 24.9036 5.74366 24.9953 5.79445L28.0145 7.57589L31.4837 7.08832C31.5908 7.07465 31.6995 7.09007 31.7985 7.13297C31.8975 7.17588 31.9831 7.24469 32.0462 7.33214L34.1653 10.1262L37.5595 11.0076C37.6634 11.0344 37.7582 11.0885 37.834 11.1644C37.9099 11.2402 37.964 11.335 37.9908 11.4389L38.8721 14.8331L41.6663 16.9521C41.7537 17.0153 41.8225 17.1009 41.8654 17.1999C41.9083 17.2989 41.9238 17.4076 41.9101 17.5147L41.4224 20.9838L43.204 24.0029C43.2602 24.0964 43.2899 24.2033 43.2899 24.3124C43.2899 24.4214 43.2602 24.5284 43.204 24.6218L41.4224 27.6409L41.9101 31.1289C41.9238 31.2359 41.9083 31.3446 41.8654 31.4436C41.8225 31.5426 41.7537 31.6282 41.6663 31.6914L38.8721 33.7917L37.9908 37.2046C37.964 37.3085 37.9099 37.4033 37.834 37.4791C37.7582 37.555 37.6634 37.6091 37.5595 37.6359L34.1653 38.4986L32.0462 41.3114C31.9809 41.3954 31.8943 41.4605 31.7955 41.5001C31.6966 41.5396 31.589 41.5522 31.4837 41.5364L28.0145 41.0489L24.9766 42.8304C24.8854 42.883 24.7819 42.9107 24.6766 42.9107C24.5713 42.9107 24.4678 42.883 24.3766 42.8304L21.3574 41.0489L17.8694 41.5364C17.7641 41.5522 17.6566 41.5396 17.5577 41.5001C17.4589 41.4605 17.3723 41.3954 17.3069 41.3114L15.2067 38.4986L11.8125 37.6359C11.7086 37.6091 11.6138 37.555 11.5379 37.4791C11.4621 37.4033 11.408 37.3085 11.3812 37.2046L10.4811 33.7917L7.68693 31.6914C7.60288 31.626 7.53775 31.5395 7.4982 31.4406C7.45866 31.3418 7.44613 31.2342 7.4619 31.1289L7.94946 27.6409L6.16795 24.6218C6.11174 24.5284 6.08203 24.4214 6.08203 24.3124C6.08203 24.2033 6.11174 24.0964 6.16795 24.0029L7.94946 20.9838L7.4619 17.5147C7.44613 17.4094 7.45866 17.3017 7.4982 17.2029C7.53775 17.104 7.60288 17.0175 7.68693 16.9521L10.4811 14.8331L11.3812 11.4389C11.408 11.335 11.4621 11.2402 11.5379 11.1644C11.6138 11.0885 11.7086 11.0344 11.8125 11.0076L15.2067 10.1262L17.3069 7.33214C17.3701 7.24469 17.4557 7.17588 17.5547 7.13297C17.6537 7.09007 17.7624 7.07465 17.8694 7.08832L21.3574 7.57589L24.3766 5.79445C24.4401 5.75697 24.5101 5.73154 24.5829 5.71944Z" fill="white" fill-opacity="0.7"/>
</g>
<path fill-rule="evenodd" clip-rule="evenodd" d="M24.6848 7.00879L27.5844 8.72211C27.7016 8.79132 27.839 8.8186 27.9738 8.79946L31.3075 8.32721L33.3342 11.0185C33.4159 11.127 33.5321 11.2046 33.6636 11.2386L36.9207 12.0787L37.7667 15.3421C37.8007 15.4735 37.8783 15.5894 37.9867 15.671L40.6721 17.692L40.2053 21.0261C40.1865 21.1604 40.2137 21.2971 40.2825 21.414L41.9907 24.3141L40.2825 27.2142C40.2137 27.3311 40.1865 27.4678 40.2053 27.6021L40.6723 30.9367L37.9859 32.9638C37.8779 33.0454 37.8006 33.1611 37.7667 33.2921L36.9207 36.5555L33.6636 37.3957C33.5321 37.4297 33.4159 37.5073 33.3342 37.6158L31.3075 40.3071L27.9738 39.8348C27.8392 39.8157 27.7021 39.8428 27.5849 39.9118L24.6848 41.62L21.7847 39.9118C21.6676 39.8428 21.5304 39.8157 21.3959 39.8348L18.0621 40.3071L16.0354 37.6158C15.9537 37.5073 15.8375 37.4297 15.706 37.3957L12.4489 36.5555L11.603 33.2921C11.569 33.1611 11.4917 33.0454 11.3837 32.9638L8.69733 30.9367L9.16431 27.6021C9.18314 27.4678 9.15592 27.3311 9.08708 27.2142L7.37891 24.3141L9.08708 21.414C9.15592 21.2971 9.18314 21.1604 9.16431 21.0261L8.69751 17.692L11.3829 15.671C11.4913 15.5894 11.5689 15.4735 11.603 15.3421L12.4489 12.0787L15.706 11.2386C15.8375 11.2046 15.9537 11.127 16.0354 11.0185L18.0621 8.32721L21.3959 8.79946C21.5307 8.8186 21.668 8.79132 21.7852 8.72211L24.6848 7.00879Z" fill="#A38B68"/>
<path d="M28.8552 22.9535C28.7962 22.9535 28.7077 22.9181 28.5898 22.8473C28.4836 22.7648 28.3715 22.6704 28.2536 22.5642C28.1356 22.4581 28.0294 22.346 27.9351 22.228C27.8407 22.0983 27.7758 21.9862 27.7404 21.8918C27.941 21.8328 28.1651 21.709 28.4128 21.5202C28.6606 21.3315 28.8965 21.1074 29.1206 20.8479C29.3447 20.5883 29.5394 20.3111 29.7045 20.0162C29.8697 19.7095 29.9699 19.4146 30.0053 19.1315C30.0053 18.8248 29.911 18.5889 29.7222 18.4237C29.5335 18.2586 29.156 18.176 28.5898 18.176C28.0707 18.176 27.4573 18.3529 26.7496 18.7068C26.0418 19.0607 25.3104 19.5031 24.5554 20.0339C23.8005 20.5647 23.0632 21.1369 22.3436 21.7503C21.6359 22.3637 21.0225 22.9358 20.5034 23.4666C19.9962 23.9857 19.6187 24.4162 19.371 24.7583C19.135 25.1004 19.1174 25.2656 19.3179 25.2538C19.5538 25.242 19.8546 25.2184 20.2203 25.183C20.586 25.1358 20.9812 25.0886 21.4058 25.0414C21.8305 24.9825 22.267 24.9235 22.7152 24.8645C23.1753 24.8055 23.6117 24.7524 24.0246 24.7052C24.4493 24.6581 24.8327 24.6168 25.1747 24.5814C25.5286 24.546 25.8117 24.5283 26.0241 24.5283C26.3898 24.5283 26.7613 24.6109 27.1388 24.776C27.5163 24.9412 27.8584 25.1535 28.1651 25.413C28.4718 25.6607 28.7195 25.9439 28.9083 26.2624C29.1088 26.5809 29.2091 26.8876 29.2091 27.1825C29.2091 27.6189 29.1029 28.1026 28.8906 28.6334C28.6782 29.1524 28.3951 29.6833 28.0412 30.2259C27.6874 30.7685 27.2745 31.2994 26.8026 31.8184C26.3426 32.3374 25.8648 32.8034 25.3694 33.2163C24.8739 33.6291 24.3785 33.9653 23.8831 34.2249C23.3876 34.4844 22.9276 34.6259 22.5029 34.6495C22.4793 34.6495 22.4675 34.6436 22.4675 34.6318L22.4852 34.6141C22.32 34.6141 22.1372 34.5728 21.9367 34.4903C21.7479 34.4077 21.5651 34.3015 21.3881 34.1718C21.2112 34.0538 21.0637 33.9181 20.9458 33.7648C20.8278 33.6114 20.7629 33.464 20.7511 33.3224C20.7275 32.8624 20.8042 32.4318 20.9812 32.0307C21.1699 31.6415 21.4117 31.2817 21.7066 30.9514C22.0133 30.6211 22.3495 30.3262 22.7152 30.0667C23.0927 29.8071 23.4525 29.5889 23.7946 29.412C24.1485 29.235 24.4611 29.0994 24.7324 29.005C25.0155 28.9106 25.216 28.8634 25.334 28.8634C25.452 28.8634 25.5758 28.8988 25.7056 28.9696C25.8353 29.0286 25.8884 29.1348 25.8648 29.2881C25.6879 29.3117 25.4638 29.3884 25.1924 29.5181C24.9211 29.6361 24.6321 29.7894 24.3254 29.9782C24.0187 30.1551 23.712 30.3616 23.4053 30.5975C23.1104 30.8216 22.8509 31.0575 22.6267 31.3053C22.4026 31.5412 22.2316 31.7771 22.1136 32.013C21.9956 32.249 21.9662 32.4672 22.0251 32.6677C22.4616 32.6324 22.8922 32.4849 23.3168 32.2254C23.7415 31.9777 24.1426 31.671 24.5201 31.3053C24.8975 30.9396 25.2514 30.5444 25.5817 30.1197C25.912 29.6951 26.1951 29.294 26.4311 28.9165C26.667 28.5272 26.8498 28.1911 26.9796 27.9079C27.1211 27.613 27.1919 27.4125 27.1919 27.3063C27.1919 26.9524 27.0798 26.7165 26.8557 26.5986C26.6316 26.4806 26.2482 26.4216 25.7056 26.4216C25.5286 26.4216 25.2514 26.4511 24.8739 26.5101C24.5083 26.5573 24.0895 26.628 23.6176 26.7224C23.1576 26.805 22.6739 26.8994 22.1667 27.0055C21.6595 27.0999 21.1817 27.1943 20.7334 27.2886C20.297 27.3712 19.9136 27.4479 19.5833 27.5187C19.2648 27.5776 19.0525 27.613 18.9463 27.6248C18.9227 27.6366 18.9109 27.6425 18.9109 27.6425C18.9227 27.6307 18.9168 27.6248 18.8932 27.6248C18.7399 27.6366 18.5334 27.6012 18.2739 27.5187C18.0144 27.4243 17.7549 27.2945 17.4954 27.1294C17.2358 26.9642 17.0117 26.7637 16.823 26.5278C16.6224 26.2801 16.5163 26.0087 16.5045 25.7138C16.4455 25.2656 16.5988 24.7229 16.9645 24.0859C17.3184 23.4489 17.808 22.7883 18.4332 22.1042C19.0584 21.4082 19.7838 20.724 20.6096 20.0516C21.4353 19.3792 22.2847 18.7835 23.1576 18.2645C24.0423 17.7336 24.9152 17.3149 25.7764 17.0082C26.6493 16.7015 27.4396 16.5658 28.1474 16.6012C28.5603 16.6248 28.9378 16.6838 29.2799 16.7781C29.6337 16.8725 29.9404 17.0141 30.2 17.2028C30.4595 17.3915 30.66 17.6275 30.8016 17.9106C30.9431 18.1819 31.0139 18.5063 31.0139 18.8838C31.0139 19.2259 30.9549 19.6328 30.837 20.1047C30.719 20.5647 30.5598 21.0071 30.3592 21.4318C30.1587 21.8564 29.9287 22.2162 29.6691 22.5111C29.4096 22.806 29.1383 22.9535 28.8552 22.9535Z" fill="white"/>
<defs>
<filter id="filter0_b_392_4455" x="8.55469" y="-24.1113" width="260.555" height="97.2227" filterUnits="userSpaceOnUse" color-interpolation-filters="sRGB">
<feFlood flood-opacity="0" result="BackgroundImageFix"/>
<feGaussianBlur in="BackgroundImage" stdDeviation="17.5"/>
<feComposite in2="SourceAlpha" operator="in" result="effect1_backgroundBlur_392_4455"/>
<feBlend mode="normal" in="SourceGraphic" in2="effect1_backgroundBlur_392_4455" result="shape"/>
</filter>
<filter id="filter1_b_392_4455" x="-23.918" y="-24.2832" width="97.207" height="97.1943" filterUnits="userSpaceOnUse" color-interpolation-filters="sRGB">
<feFlood flood-opacity="0" result="BackgroundImageFix"/>
<feGaussianBlur in="BackgroundImage" stdDeviation="15"/>
<feComposite in2="SourceAlpha" operator="in" result="effect1_backgroundBlur_392_4455"/>
<feBlend mode="normal" in="SourceGraphic" in2="effect1_backgroundBlur_392_4455" result="shape"/>
</filter>
</defs>
</svg>
